<svg width="24" height="24" viewBox="0 0 24 24" fill="none" xmlns="http://www.w3.org/2000/svg">
  <!-- Simplified Threads Logo - @ symbol inspired design -->
  <path d="M12 2C6.477 2 2 6.477 2 12s4.477 10 10 10 10-4.477 10-10S17.523 2 12 2zm0 18c-4.411 0-8-3.589-8-8s3.589-8 8-8 8 3.589 8 8-3.589 8-8 8z" fill="currentColor"/>
  <path d="M15.5 8.5c-1.381 0-2.5 1.119-2.5 2.5v2c0 1.381-1.119 2.5-2.5 2.5S8 13.381 8 12s1.119-2.5 2.5-2.5h5c.276 0 .5-.224.5-.5s-.224-.5-.5-.5h-5C8.019 8.5 6.5 10.019 6.5 12s1.519 3.5 3.5 3.5 3.5-1.519 3.5-3.5v-2c0-.827.673-1.5 1.5-1.5s1.5.673 1.5 1.5-.673 1.5-1.5 1.5h-.5c-.276 0-.5.224-.5.5s.224.5.5.5h.5c1.381 0 2.5-1.119 2.5-2.5s-1.119-2.5-2.5-2.5z" fill="currentColor"/>
</svg>